<?xml version="1.0" standalone="no"?>
<!DOCTYPE svg PUBLIC "-//W3C//DTD SVG 20010904//EN"
 "http://www.w3.org/TR/2001/REC-SVG-20010904/DTD/svg10.dtd">
<svg version="1.0" xmlns="http://www.w3.org/2000/svg"
 width="1133.000000pt" height="1280.000000pt" viewBox="0 0 1133.000000 1280.000000"
 preserveAspectRatio="xMidYMid meet">
<metadata>
Created by potrace 1.15, written by Peter Selinger 2001-2017
</metadata>
<g transform="translate(0.000000,1280.000000) scale(0.100000,-0.100000)"
fill="#000000" stroke="none">
<path d="M5630 12730 c-17 -34 -243 -475 -501 -979 -440 -859 -473 -919 -523
-967 -65 -61 -118 -79 -210 -71 -92 9 -151 36 -566 261 -206 113 -376 201
-378 197 -1 -4 38 -232 87 -507 197 -1091 315 -1747 383 -2119 96 -527 98
-630 11 -726 -70 -77 -168 -75 -291 5 -18 11 -326 364 -684 783 -358 420 -653
761 -655 760 -2 -2 -48 -170 -103 -373 -56 -203 -111 -389 -123 -414 -30 -58
-92 -105 -161 -121 -61 -13 44 -34 -1255 251 -227 50 -415 89 -417 88 -1 -2
83 -327 187 -723 290 -1102 300 -1141 301 -1220 1 -78 -13 -114 -59 -156 -15
-14 -171 -95 -345 -180 -174 -85 -317 -157 -317 -161 -1 -4 608 -524 1353
-1157 744 -633 1368 -1164 1385 -1181 45 -46 78 -106 97 -180 26 -103 32 -79
-177 -786 -32 -111 -59 -204 -59 -206 0 -5 54 1 755 86 253 31 705 85 1005
121 300 36 637 77 750 91 113 14 221 22 240 19 52 -10 103 -39 143 -84 34 -37
37 -46 37 -99 0 -51 -64 -1636 -105 -2579 -8 -193 -15 -363 -15 -377 l0 -26
226 0 227 0 -7 258 c-57 2261 -67 2744 -56 2777 14 43 74 97 133 120 43 16 53
16 184 1 76 -10 435 -53 798 -97 363 -43 849 -102 1080 -130 652 -79 715 -86
715 -81 0 2 -27 95 -59 206 -209 707 -203 683 -177 786 19 74 52 134 97 180
17 17 641 548 1385 1181 745 633 1354 1153 1353 1157 0 4 -143 76 -317 161
-174 85 -330 166 -345 180 -46 42 -60 78 -59 156 1 79 11 118 301 1220 104
396 188 721 187 723 -2 1 -190 -38 -417 -88 -1299 -285 -1194 -264 -1255 -251
-69 16 -131 63 -161 121 -12 25 -67 211 -123 414 -55 203 -101 371 -103 373
-2 1 -297 -340 -655 -760 -358 -419 -666 -772 -684 -783 -123 -80 -221 -82
-291 -5 -50 56 -62 99 -61 226 0 91 13 178 72 500 68 372 186 1028 383 2119
49 275 88 503 87 507 -2 4 -172 -84 -378 -197 -415 -225 -474 -252 -566 -261
-92 -9 -145 10 -210 71 -50 48 -83 109 -550 1021 -273 534 -500 974 -505 979
-4 5 -22 -20 -39 -54z"/>
</g>
</svg>
